<svg width="16" height="16" viewBox="0 0 16 16" fill="none" xmlns="http://www.w3.org/2000/svg">
<path d="M14.9733 4C14.46 4.23333 13.9067 4.38667 13.3333 4.46C13.92 4.10667 14.3733 3.54667 14.5867 2.87333C14.0333 3.20667 13.42 3.44 12.7733 3.57333C12.2467 3 11.5067 2.66667 10.6667 2.66667C9.10001 2.66667 7.82001 3.94667 7.82001 5.52667C7.82001 5.75333 7.84667 5.97334 7.89334 6.18C5.52001 6.06 3.40667 4.92 2.00001 3.19333C1.75334 3.61333 1.61334 4.10667 1.61334 4.62667C1.61334 5.62 2.11334 6.5 2.88667 7C2.41334 7 1.97334 6.86667 1.58667 6.66667V6.68667C1.58667 8.07333 2.57334 9.23333 3.88001 9.49333C3.46049 9.60814 3.02007 9.62411 2.59334 9.54C2.77441 10.1083 3.12903 10.6056 3.60735 10.962C4.08567 11.3183 4.66364 11.5158 5.26001 11.5267C4.24909 12.327 2.996 12.7595 1.70667 12.7533C1.48001 12.7533 1.25334 12.74 1.02667 12.7133C2.29334 13.5267 3.80001 14 5.41334 14C10.6667 14 13.5533 9.64 13.5533 5.86C13.5533 5.73333 13.5533 5.61333 13.5467 5.48667C14.1067 5.08667 14.5867 4.58 14.9733 4Z" fill="white"/>
</svg>
