<svg width="16" height="16" viewBox="0 0 16 16" fill="none" xmlns="http://www.w3.org/2000/svg">
<path d="M2.66668 13.3333C2.30001 13.3333 1.98601 13.2027 1.72468 12.9413C1.46334 12.68 1.3329 12.3662 1.33334 12V4C1.33334 3.63333 1.46401 3.31933 1.72534 3.058C1.98668 2.79667 2.30046 2.66622 2.66668 2.66667H13.3333C13.7 2.66667 14.014 2.79733 14.2753 3.05867C14.5367 3.32 14.6671 3.63378 14.6667 4V12C14.6667 12.3667 14.536 12.6807 14.2747 12.942C14.0133 13.2033 13.6996 13.3338 13.3333 13.3333H2.66668ZM8.00001 8.66667L2.66668 5.33333V12H13.3333V5.33333L8.00001 8.66667ZM8.00001 7.33333L13.3333 4H2.66668L8.00001 7.33333ZM2.66668 5.33333V4V12V5.33333Z" fill="white"/>
</svg>
