<svg width="16" height="16" viewBox="0 0 16 16" fill="none" xmlns="http://www.w3.org/2000/svg">
<g clip-path="url(#clip0_56_10460)">
<path fill-rule="evenodd" clip-rule="evenodd" d="M8 16C3.5815 16 0 12.4185 0 8C0 3.5815 3.5815 0 8 0C12.4185 0 16 3.5815 16 8C16 12.4185 12.4185 16 8 16ZM5.25 7.619V8.523H6.132V9.827H5.25V10.6795H6.132V12.5H7.126V10.6795H9.126V9.827H7.126V8.523H8.3805C8.76268 8.5262 9.1433 8.47399 9.5105 8.368C9.8585 8.2645 10.1605 8.108 10.4175 7.8965C10.6745 7.686 10.8775 7.4215 11.0265 7.1025C11.1755 6.784 11.25 6.4095 11.25 5.979C11.25 5.549 11.18 5.179 11.039 4.869C10.898 4.559 10.7035 4.3025 10.455 4.1005C10.2065 3.8985 9.9085 3.7475 9.5605 3.6485C9.18423 3.54577 8.79552 3.4958 8.4055 3.5H6.132V7.619H5.25ZM8.405 7.619H7.126V4.404H8.4055C8.9765 4.404 9.426 4.529 9.753 4.7785C10.08 5.028 10.244 5.4285 10.244 5.979C10.244 6.53 10.08 6.941 9.753 7.2125C9.426 7.4835 8.9765 7.619 8.4055 7.619H8.405Z" fill="white"/>
</g>
<defs>
<clipPath id="clip0_56_10460">
<rect width="16" height="16" fill="white"/>
</clipPath>
</defs>
</svg>
