<svg width="24" height="24" viewBox="0 0 24 24" fill="none" xmlns="http://www.w3.org/2000/svg">
<path d="M12 12.375C10.8875 12.375 9.79994 12.0451 8.87492 11.427C7.94989 10.8089 7.22892 9.93043 6.80318 8.9026C6.37743 7.87476 6.26604 6.74376 6.48308 5.65262C6.70012 4.56148 7.23585 3.5592 8.02252 2.77253C8.80919 1.98586 9.81147 1.45013 10.9026 1.23309C11.9938 1.01604 13.1248 1.12744 14.1526 1.55318C15.1804 1.97892 16.0589 2.69989 16.677 3.62492C17.2951 4.54995 17.625 5.63748 17.625 6.75C17.625 8.24185 17.0324 9.67259 15.9775 10.7275C14.9226 11.7824 13.4918 12.375 12 12.375ZM12 3.375C11.3325 3.375 10.68 3.57294 10.125 3.94379C9.56993 4.31464 9.13735 4.84175 8.88191 5.45845C8.62646 6.07515 8.55962 6.75375 8.68985 7.40843C8.82007 8.06312 9.14151 8.66449 9.61351 9.13649C10.0855 9.60849 10.6869 9.92993 11.3416 10.0602C11.9963 10.1904 12.6749 10.1235 13.2916 9.8681C13.9083 9.61265 14.4354 9.18007 14.8062 8.62505C15.1771 8.07004 15.375 7.41751 15.375 6.75C15.375 5.8549 15.0194 4.99645 14.3865 4.36352C13.7535 3.73058 12.8951 3.375 12 3.375ZM22.5 22.875C22.2028 22.8711 21.9189 22.7513 21.7088 22.5412C21.4987 22.3311 21.3789 22.0472 21.375 21.75C21.375 18.825 19.785 16.875 12 16.875C4.215 16.875 2.625 18.825 2.625 21.75C2.625 22.0484 2.50647 22.3345 2.2955 22.5455C2.08452 22.7565 1.79837 22.875 1.5 22.875C1.20163 22.875 0.915483 22.7565 0.704505 22.5455C0.493526 22.3345 0.375 22.0484 0.375 21.75C0.375 14.625 8.52 14.625 12 14.625C15.48 14.625 23.625 14.625 23.625 21.75C23.6211 22.0472 23.5013 22.3311 23.2912 22.5412C23.0811 22.7513 22.7972 22.8711 22.5 22.875Z" fill="white"/>
</svg>
