<svg width="16" height="16" viewBox="0 0 16 16" fill="none" xmlns="http://www.w3.org/2000/svg">
<path d="M1.53999 7.49467C1.51548 7.39641 1.51368 7.29387 1.53472 7.19481C1.55576 7.09576 1.59909 7.0028 1.66143 6.92299C1.72376 6.84318 1.80345 6.77862 1.89446 6.73421C1.98546 6.68979 2.08539 6.6667 2.18665 6.66667H13.8133C13.9146 6.6667 14.0145 6.68979 14.1055 6.73421C14.1965 6.77862 14.2762 6.84318 14.3386 6.92299C14.4009 7.0028 14.4442 7.09576 14.4653 7.19481C14.4863 7.29387 14.4845 7.39641 14.46 7.49467L13.2527 12.3233C13.1806 12.6118 13.0141 12.8679 12.7798 13.0509C12.5454 13.2339 12.2566 13.3333 11.9593 13.3333H4.04065C3.74333 13.3333 3.45455 13.2339 3.22021 13.0509C2.98587 12.8679 2.81942 12.6118 2.74732 12.3233L1.53999 7.49533V7.49467Z" stroke="white" stroke-width="1.33333" stroke-linejoin="round"/>
<path d="M6 9.33333V10.6667M10 9.33333V10.6667M4 6.66667L6.66667 2.66667M12 6.66667L9.33333 2.66667" stroke="white" stroke-width="1.33333" stroke-linecap="round"/>
</svg>
