<svg width="16" height="16" viewBox="0 0 16 16" fill="none" xmlns="http://www.w3.org/2000/svg">
<g id="mdi:calendar">
<path id="Vector" d="M12.6667 13H3.33333V5.66667H12.6667M10.6667 1V2.33333H5.33333V1H4V2.33333H3.33333C2.59333 2.33333 2 2.92667 2 3.66667V13C2 13.3536 2.14048 13.6928 2.39052 13.9428C2.64057 14.1929 2.97971 14.3333 3.33333 14.3333H12.6667C13.0203 14.3333 13.3594 14.1929 13.6095 13.9428C13.8595 13.6928 14 13.3536 14 13V3.66667C14 3.31304 13.8595 2.97391 13.6095 2.72386C13.3594 2.47381 13.0203 2.33333 12.6667 2.33333H12V1M11.3333 8.33333H8V11.6667H11.3333V8.33333Z" fill="white"/>
</g>
</svg>
