<svg width="16" height="16" viewBox="0 0 16 16" fill="none" xmlns="http://www.w3.org/2000/svg">
<path d="M7.99999 8C7.26666 8 6.63888 7.73889 6.11666 7.21667C5.59443 6.69445 5.33332 6.06667 5.33332 5.33333C5.33332 4.6 5.59443 3.97222 6.11666 3.45C6.63888 2.92778 7.26666 2.66667 7.99999 2.66667C8.73332 2.66667 9.3611 2.92778 9.88332 3.45C10.4055 3.97222 10.6667 4.6 10.6667 5.33333C10.6667 6.06667 10.4055 6.69445 9.88332 7.21667C9.3611 7.73889 8.73332 8 7.99999 8ZM2.66666 13.3333V11.4667C2.66666 11.0889 2.76399 10.7416 2.95866 10.4247C3.15332 10.1078 3.41155 9.86622 3.73332 9.7C4.42221 9.35556 5.12221 9.09711 5.83332 8.92467C6.54443 8.75222 7.26666 8.66622 7.99999 8.66667C8.73332 8.66667 9.45555 8.75289 10.1667 8.92533C10.8778 9.09778 11.5778 9.356 12.2667 9.7C12.5889 9.86667 12.8473 10.1084 13.042 10.4253C13.2367 10.7422 13.3338 11.0893 13.3333 11.4667V13.3333H2.66666Z" fill="white"/>
</svg>
