<svg version="1.1" id="Logo1_1_" xmlns="http://www.w3.org/2000/svg" x="0" y="0" viewBox="0 0 600 218" xml:space="preserve"><style>.st0{fill-rule:evenodd;clip-rule:evenodd;fill:#fff}</style><path class="st0" d="M368.7 137.8c.8-.3 1.9-.4 3.5-.4 1.1 0 2.1 0 2.8.1.8.1 1.4.1 1.9.2s.9.1 1.2.1c.3 0 .6.1.8.1.2 0 .4-.1.4-.4l.3-1.8c.2-.5.1-.9-.2-1.1-.3-.2-.6-.4-1-.4-.6-.1-1.3-.2-2.1-.3-.9-.1-2.1-.1-3.7-.1-3.1 0-5.5.6-6.9 1.7-1.5 1.1-2.4 2.6-2.6 4.3-.2 1.4 0 2.5.7 3.3.7.8 2 1.5 3.9 2l5.1 1.5c.5.2 1 .4 1.4.7.4.3.6.7.5 1.2-.1.7-.6 1.3-1.3 1.6-.8.4-2 .6-3.7.6-2.3 0-4-.2-5.1-.5-1.1-.4-1.8-.5-2.2-.5-.3 0-.4.1-.5.4l-.4 1.9c-.1.9.2 1.5 1 1.7.8.2 1.7.4 2.9.5 1.1.1 2.5.2 4.2.2 3.1 0 5.3-.5 6.9-1.6 1.5-1.1 2.5-2.6 2.8-4.6.2-1.4 0-2.5-.7-3.3-.7-.9-2-1.5-3.7-2l-5.3-1.5c-1.4-.4-2-1-1.9-1.9-.3-.9.2-1.4 1-1.7zm103.9 16.4h3.2c.3 0 .4-.2.5-.5l2.4-15.6c.1-.4.4-.5.7-.5h5.1c.4 0 .6-.1.6-.4l.4-2.4c.1-.4-.1-.5-.5-.5h-5.8l.4-2.4c.2-1.1.5-1.7 1-2 .4-.3 1.3-.5 2.8-.5h3.2c.2 0 .3-.1.3-.3l.6-2.2c.1-.7-.2-1.2-1-1.3h-3.1c-4.7 0-7.3 2.2-8 6.6l-3.4 21.7c0 .1.2.3.6.3zm88-27.6-2.2 10.8 8.6-10.8h-6.4zm-214.1 11.2c.8-.3 1.9-.4 3.5-.4 1.1 0 2.1 0 2.8.1.8.1 1.4.1 1.9.2s.9.1 1.2.1c.3 0 .6.1.8.1.2 0 .4-.1.4-.4l.3-1.8c.2-.5.1-.9-.2-1.1-.3-.2-.6-.4-1-.4-.6-.1-1.3-.2-2.1-.3-.9-.1-2.1-.1-3.7-.1-3.1 0-5.5.6-6.9 1.7-1.5 1.1-2.4 2.6-2.6 4.3-.2 1.4 0 2.5.7 3.3.7.8 2 1.5 3.9 2l5.1 1.5c.5.2 1 .4 1.4.7.4.3.6.7.5 1.2-.1.7-.6 1.3-1.3 1.6-.8.4-2 .6-3.7.6-2.3 0-4-.2-5.1-.5-1.1-.4-1.8-.5-2.2-.5-.3 0-.4.1-.5.4l-.4 1.9c-.1.9.2 1.5 1 1.7.8.2 1.7.4 2.9.5 1.1.1 2.5.2 4.2.2 3.1 0 5.3-.5 6.9-1.6 1.5-1.1 2.5-2.6 2.8-4.6.2-1.4 0-2.5-.7-3.3-.7-.9-2-1.5-3.7-2l-5.3-1.5c-1.4-.4-2-1-1.9-1.9-.2-.9.2-1.4 1-1.7zm110.2 16.5c1.9 0 3.6-.1 4.8-.2 1.3-.1 2.5-.3 3.7-.5 1-.2 1.6-.7 1.8-1.7l2.8-17.5c0-.3-.1-.5-.5-.5h-3.4c-.3 0-.5.2-.5.5l-2.4 15.1c-.1.3-.3.5-.7.6-.4.1-.9.2-1.6.2-.7 0-1.7.1-3.1.1-1.8 0-2.9-.3-3.5-.8-.5-.5-.7-1.6-.4-3.1l1.9-12.2c0-.3-.1-.5-.4-.5h-3.5c-.3 0-.5.2-.5.5l-2 12.9c-.4 2.5 0 4.3 1.2 5.4 1.1 1.2 3.2 1.7 6.3 1.7zm47.4-.1h3.8c.3 0 .5-.2.6-.5l4.3-27.7c.1-.4-.1-.5-.4-.5h-2.2c-1.4 0-2.2.8-2.4 2.3l-4 25.9c-.1.3 0 .5.3.5zm12.4-2.8c.6.9 1.6 1.6 2.8 2.1 1.2.5 2.8.7 4.8.7 1.4 0 2.6 0 3.6-.1 1.1 0 1.9-.1 2.6-.2.5-.1.9-.2 1.2-.5.3-.2.5-.6.5-1.1l.2-1.8c.1-.3-.1-.5-.4-.5h-.9c-.5 0-1 .1-1.7.1-.6.1-1.3.1-2 .1s-1.4.1-2 .1c-1.9 0-3.3-.2-4.1-.7-.9-.5-1.3-1.4-1.4-2.8l7.9-1.4c1.2-.2 2.2-.5 3.1-.8.9-.3 1.6-.7 2.2-1.1.6-.5 1.1-1 1.4-1.7.3-.7.6-1.5.7-2.4.1-.7.1-1.4-.1-2.1-.2-.7-.5-1.3-1.1-1.9-.6-.6-1.5-1-2.6-1.4-1.1-.4-2.6-.5-4.5-.5-1.6 0-3 .2-4.2.5-1.3.3-2.4.9-3.3 1.6-1 .8-1.7 1.8-2.4 3.1-.6 1.3-1.1 2.9-1.4 4.8-.2 1.6-.3 3.1-.2 4.3.3 1.6.7 2.7 1.3 3.6zm3.7-8.4c.2-1.1.4-1.9.6-2.7.3-.7.6-1.3 1.1-1.8.5-.5 1.1-.8 1.9-1 .8-.2 1.7-.3 2.9-.3 1.6 0 2.7.2 3.3.6.6.4.9 1 .7 1.8-.1.4-.1.7-.2 1-.1.3-.3.5-.6.7-.3.2-.7.4-1.3.6-.5.2-1.3.3-2.1.5l-6.4 1.1.1-.5zM317 148.1c.1 1.3.5 2.4 1.1 3.3.6.9 1.6 1.6 2.8 2.1 1.2.5 2.8.7 4.8.7 1.4 0 2.6 0 3.6-.1 1.1 0 1.9-.1 2.6-.2.5-.1.9-.2 1.2-.5.3-.2.5-.6.5-1.1l.2-1.8c.1-.3-.1-.5-.4-.5h-.9c-.5 0-1 .1-1.6.1-.6.1-1.3.1-2 .1s-1.4.1-2 .1c-1.9 0-3.3-.2-4.1-.7-.9-.5-1.3-1.4-1.4-2.8l7.9-1.4c1.2-.2 2.2-.5 3.1-.8.9-.3 1.6-.7 2.2-1.1.6-.5 1.1-1 1.4-1.7.3-.7.6-1.5.7-2.4.1-.7.1-1.4-.1-2.1-.2-.7-.5-1.3-1.1-1.9-.6-.6-1.5-1-2.6-1.4-1.1-.4-2.6-.5-4.4-.5-1.6 0-3 .2-4.2.5-1.3.3-2.4.9-3.3 1.6-1 .8-1.7 1.8-2.4 3.1-.6 1.3-1.1 2.9-1.4 4.8-.2 1.9-.3 3.3-.2 4.6zm4.8-5.1c.2-1.1.4-1.9.6-2.7.3-.7.6-1.3 1.1-1.8.5-.5 1.1-.8 1.9-1 .8-.2 1.7-.3 2.9-.3 1.6 0 2.7.2 3.3.6.6.4.9 1 .7 1.8-.1.4-.1.7-.3 1-.1.3-.3.5-.6.7-.3.2-.7.4-1.2.6-.5.2-1.3.3-2.1.5l-6.4 1.1.1-.5zm166.6 11.2h3.2c.3 0 .4-.2.5-.5l2.4-15.6c.1-.4.4-.5.7-.5h5.1c.4 0 .6-.1.6-.4l.4-2.4c.1-.4-.1-.5-.5-.5H495l.4-2.4c.2-1.1.5-1.7 1-2 .4-.3 1.3-.5 2.8-.5h3.2c.2 0 .3-.1.3-.3l.6-2.2c.1-.7-.2-1.2-1-1.3h-3.1c-4.7 0-7.3 2.2-8 6.6l-3.4 21.7c.1.1.2.3.6.3zm49.2 0h3.4c.3 0 .5-.2.6-.5l2-13c.2-1 .5-1.7 1.2-2.1.6-.4 1.4-.6 2.5-.6h4.3c.3 0 .5-.1.5-.4l.4-1.9c.1-.7-.2-1.2-1-1.3-.5-.1-1-.1-1.6-.2-.6 0-1.2-.1-1.8-.1-2.6 0-4.6.6-6 1.7-1.5 1.1-2.4 2.9-2.8 5.4l-1.9 12.4c-.2.4-.1.6.2.6zM240.2 138c.1-.4.2-.5.6-.5h5.2c.3 0 .5-.2.6-.5l.4-2.5c0-.3-.1-.5-.4-.5h-5.7l.8-5.4c.1-.3-.1-.5-.4-.5h-2.1c-.6 0-1.1.2-1.5.5-.4.4-.7.9-.7 1.5l-2.7 17.5c-.3 2.3-.1 3.9.9 5 .9 1.1 2.7 1.6 5.3 1.6h1.7c.5 0 1 0 1.5-.1s.8-.3 1-.4c.2-.2.3-.5.4-.9l.3-1.9c0-.3-.1-.4-.3-.4-.4 0-.9 0-1.6.1-.7 0-1.2.1-1.7.1-1.5 0-2.3-.2-2.6-.6-.3-.4-.4-1.2-.2-2.2l1.2-9.9zm-43.3 15.3c1.4.4 3.2.6 5.2.8 2.1.2 4.6.3 7.6.3 5.6 0 9.8-.9 12.6-2.6 2.8-1.7 4.5-4.1 5.1-7.3.4-2.2 0-3.9-1.3-5.3s-3.6-2.4-6.8-3.2l-9.7-2.3c-2.6-.6-3.7-1.6-3.5-3 .2-1.2 1.1-2.1 2.5-2.5 1.4-.4 3.5-.7 6.4-.7 2.1 0 3.8 0 5.2.1 1.4.1 2.5.2 3.4.3.9.1 1.6.2 2.2.2.6.1 1 .1 1.4.1.4 0 .7-.2.7-.6l.5-2.9c.3-.8.2-1.4-.3-1.7-.5-.3-1.1-.6-1.9-.7-1-.2-2.3-.3-3.9-.5-1.6-.1-3.9-.2-6.9-.2-5.7 0-10 .9-12.7 2.7-2.7 1.8-4.3 4.1-4.8 6.8-.4 2.2 0 3.9 1.3 5.2 1.3 1.3 3.7 2.3 7.2 3.2l9.3 2.3c1 .3 1.9.6 2.6 1.1.7.4 1 1 .9 1.9-.2 1.1-1 2-2.5 2.6-1.4.6-3.7.9-6.8.9-4.3 0-7.4-.3-9.3-.8-2-.6-3.3-.8-4.1-.8-.5 0-.8.2-.9.7l-.7 3.1c-.1 1.5.5 2.4 2 2.8zm57.8-18.9c-.5.1-.8.2-1.1.4-.3.2-.5.6-.5 1.1l-.2 1.8c-.1.3 0 .4.3.4.4 0 1.2-.1 2.3-.3 1.1-.2 2.8-.3 5-.3 1.7 0 2.8.2 3.4.6.6.4.8 1.1.6 2.1-.1.3-.1.5-.2.6-.1.1-.2.2-.5.3-.2.1-.5.2-.8.2-.3.1-.7.2-1.2.3-.5.1-1.1.2-1.9.3-.7.1-1.6.3-2.7.4-2.3.4-4.1 1.1-5.4 1.9-1.3.8-2.1 2.1-2.4 3.8-.1.7-.1 1.4-.1 2.1.1.7.4 1.3.9 1.9.5.6 1.4 1 2.5 1.4 1.1.4 2.7.5 4.6.5 1.3 0 2.6 0 3.9-.1 1.3-.1 2.5-.2 3.6-.4 1-.2 1.6-.7 1.8-1.7l1.8-10.7c.4-2.6.1-4.5-1.1-5.6-1.2-1.1-3.3-1.6-6.3-1.6-1.6 0-2.9 0-3.9.1-.9.3-1.8.4-2.4.5zm8.1 15.9c-.4.1-1 .2-1.9.2-.9.1-1.7.1-2.5.1-1.5 0-2.7-.2-3.5-.5-.8-.3-1.2-1-1-2 .2-1.2 1-1.9 2.5-2.2l7.4-1.4-1 5.8zm-65.9-35h45.9c3.9 0 6.1-1.6 6.7-4.9l.9-4.9c.1-.8-.2-1.1-1.1-1.1h-30.9l36.4-29.2c1-.7 1.6-1.4 1.7-2.2l1.6-8.8c.1-.8-.2-1.1-1.1-1.1h-46c-3.9 0-6.1 1.6-6.7 4.9l-.9 4.9c-.2.8.2 1.1 1.1 1.1h31.4l-37.5 30.3c-.5.1-.8.5-.9 1l-1.6 8.8c-.2.8.1 1.2 1 1.2zm247 17.9c1.1-7.4-2.7-11.1-11.3-11.1-1.8 0-3.6.2-5.2.5-1.7.3-3.1.7-4.2 1-.8-.5-1.9-.8-3.3-1.1-1.3-.3-2.8-.4-4.4-.4-2.3 0-4.3.1-6.2.3-1.9.2-3.7.5-5.4.9-1.7.3-2.6 1.3-2.8 2.7l-7.1 39.4H194.1l-2.2 8.6h207l.1-.5c.2-.1.4-.3.4-.6l.8-4.2.6-3.3 6.5-35.6c.1-.7.5-1 1-1 1.1-.4 2.6-.5 4.7-.5 2.6 0 4.3.4 4.9 1.2.6.8.8 2.2.5 4.1l-7.3 39.4c-.1.5.1.7.6.7h5.5c.6 0 .9-.2.9-.7l7.9-43.2c.1-.6.4-.9.9-1 1.4-.4 3.1-.5 4.9-.5 2.2 0 3.6.4 4.4 1.3.7.9.9 2.4.6 4.7l-5.5 39.8h153.1l2.2-8.6h-147l4.3-32.3zm142.9 1.4c-.3-.2-.6-.4-1-.4-.6-.1-1.3-.2-2.1-.3-.9-.1-2.1-.1-3.7-.1-3.1 0-5.5.6-6.9 1.7-1.5 1.1-2.4 2.6-2.6 4.3-.2 1.4 0 2.5.7 3.3.7.8 2 1.5 3.9 2l5.1 1.5c.5.2 1 .4 1.4.7.4.3.6.7.5 1.2-.1.7-.6 1.3-1.3 1.6-.8.4-2 .6-3.7.6-2.3 0-4-.2-5.1-.5-1.1-.4-1.8-.5-2.2-.5-.3 0-.4.1-.5.4l-.4 1.9c-.1.9.2 1.5 1 1.7.8.2 1.7.4 2.9.5 1.1.1 2.5.2 4.2.2 3.1 0 5.3-.5 6.9-1.6 1.5-1.1 2.5-2.6 2.8-4.6.2-1.4 0-2.5-.7-3.3-.7-.9-2-1.5-3.7-2l-5.3-1.5c-1.4-.4-2-1-1.9-1.9.1-.8.6-1.3 1.3-1.6.8-.3 1.9-.4 3.5-.4 1.1 0 2.1 0 2.8.1.8.1 1.4.1 1.9.2s.9.1 1.2.1c.3 0 .6.1.8.1.2 0 .4-.1.4-.4l.3-1.8c-.2-.6-.3-1-.5-1.2zm-310.4 0c-1.3 0-2 .6-2.2 1.9l-2.7 17.3c0 .3.1.4.4.4h3.4c.3 0 .5-.1.5-.4l2.9-18.7c0-.3-.1-.4-.4-.4h-1.9zm35.3-9.2c-1.4 0-2.2.8-2.4 2.3l-4 25.9c-.1.4.1.5.4.5h3.8c.3 0 .5-.2.6-.5l4.3-27.7c.1-.4-.1-.5-.4-.5h-2.3zm-31.6 2.9c.3-1.7-.4-2.6-2.1-2.6-1.7 0-2.7.9-3 2.6-.3 1.7.5 2.5 2.2 2.5 1.7.1 2.7-.8 2.9-2.5zm15.9 25.6c-.1.3.1.5.4.5h3.5c.3 0 .5-.2.6-.5l2.1-12.9c.4-2.5 0-4.3-1.2-5.4-1.2-1.1-3.3-1.6-6.4-1.6-1.9 0-3.5.1-4.8.2-1.3.1-2.5.3-3.7.5-1 .2-1.6.7-1.8 1.7l-2.8 17.5c-.1.3.1.5.5.5h3.4c.3 0 .5-.2.5-.5l2.4-15.1c.1-.3.3-.5.7-.6.4-.1.9-.2 1.6-.2.7 0 1.8-.1 3.1-.1 1.8 0 3 .3 3.5.8s.7 1.6.4 3.1l-2 12.1zm42.5-39.9c.1.5.4.9.7 1.3.3.3.8.5 1.5.5h13c1.1 0 2-.5 2.7-1.4l30.2-48.6c.3-.4.6-.8.6-1 .1-.2.1-.4.2-.6.1-.8-.3-1.1-1.3-1.1h-8.5c-1.4 0-2.4.2-3 .6-.6.4-1.1 1-1.5 1.9L350 105h-.2l-8.6-39.6c-.3-1.6-1.7-2.4-4.2-2.4h-9.1c-1 0-1.6.4-1.7 1.1-.1.5-.1 1 .1 1.6l12.2 48.3zm-72.7.1c2.4.6 5.2 1 8.6 1.3 3.4.3 7.5.5 12.5.5 9.1 0 16-1.4 20.6-4.2 4.6-2.8 7.4-6.8 8.3-11.9.7-3.5-.1-6.4-2.2-8.6-2.1-2.2-5.8-3.9-11.2-5.2l-15.8-3.8c-4.2-.9-6.1-2.5-5.7-4.8.4-2 1.7-3.4 4-4.1 2.3-.7 5.8-1.1 10.5-1.1 3.4 0 6.3.1 8.5.2 2.2.2 4.1.3 5.5.5 1.5.2 2.6.3 3.6.4.9.1 1.7.2 2.2.2.7 0 1.1-.3 1.2-.9l.9-4.7c.5-1.3.3-2.2-.4-2.8-.8-.6-1.8-.9-3.1-1.1-1.7-.3-3.8-.6-6.4-.8-2.6-.2-6.3-.3-11.2-.3-9.4 0-16.3 1.5-20.8 4.4-4.5 2.9-7.1 6.6-7.9 11.1-.7 3.5 0 6.3 2.1 8.4 2 2.1 6 3.8 11.8 5.2l15.3 3.8c1.6.5 3 1.1 4.2 1.7 1.2.7 1.7 1.7 1.4 3.1-.3 1.8-1.7 3.2-4 4.3-2.4 1-6 1.5-11.1 1.5-6.9 0-12-.5-15.3-1.4-3.2-.9-5.5-1.4-6.7-1.4-.8 0-1.3.4-1.4 1.1l-1.1 5c-.3 2.4.7 3.8 3.1 4.4z" id="logo_texts"/><path class="st0" d="m139 35.3-7.6 6.6v82.4s.5 11.8-6.2 19.3c-27.3 30.6-39.4 40.2-39.4 40.2s-4.5 3.8-8.6 3.8h-.6c-4.1 0-8.6-3.8-8.6-3.8s-12.1-9.6-39.4-40.2c-6.7-7.5-6.2-19.3-6.2-19.3V42.4l-8.2-7.1s-3.9 93.4 2.1 108.4c6.8 16.8 60.5 58.4 60.5 58.4s53.1-41.6 59.9-58.4c6.2-15 2.3-108.4 2.3-108.4zM73.1 178.2s1.8 1.3 3.6 1.3h.4c1.8 0 3.6-1.3 3.6-1.3s38.8-37.8 40.9-42.5c2.3-5 2.1-11.4 2.1-11.4V34L76.9 80.4 30.1 34v90.3s-.2 6.4 2.1 11.4c2.1 4.7 40.9 42.5 40.9 42.5zm7.6-65.2 16.5 15.7h3.2s1.9-1.8 1.9-3.7c0-1.9-1.9-3.8-1.9-3.8l-15.8-16.3s-3.8-4.9-3.8-10.6c0-5.7 4.4-11.4 4.4-11.4l30.4-30.1v52.7L101 91.7s-2.9-2-5.2.1c-2.1 2-.5 5.5-.5 5.5l17.1 16.9s3.2 5 3.2 9.7c0 5.6-3.2 11-3.2 11l-27.2 27s-.3-1.1-1.3-2.2c-1.2-1.3-3.1-2.2-3.1-2.2V113zM58.1 91.8c-2.3-2.2-5.2-.1-5.2-.1l-14.6 13.8V52.8l30.4 30.1s4.4 5.7 4.4 11.4c0 5.6-3.8 10.6-3.8 10.6l-15.8 16.3s-1.9 1.9-1.9 3.8 1.9 3.7 1.9 3.7h3.2L73.1 113v44.5s-1.9.8-3.1 2.2c-1 1.1-1.3 2.2-1.3 2.2l-27.2-27s-3.2-5.4-3.2-11c0-4.7 3.2-9.7 3.2-9.7l17.1-16.9s1.6-3.5-.5-5.5z" id="Logo_shape"/></svg>