<?xml version="1.0" encoding="utf-8"?>
<!-- Generator: Adobe Illustrator 21.1.0, SVG Export Plug-In . SVG Version: 6.00 Build 0)  -->
<svg version="1.1" id="Logo1_1_" xmlns="http://www.w3.org/2000/svg" xmlns:xlink="http://www.w3.org/1999/xlink" x="0px" y="0px"
	 viewBox="0 0 600 218" style="enable-background:new 0 0 600 218;" xml:space="preserve">
<style type="text/css">
	.st0{fill-rule:evenodd;clip-rule:evenodd;fill:#FFFFFF;}
</style>
<g id="logo_texts">
	<g>
		<path class="st0" d="M368.7,137.8c0.8-0.3,1.9-0.4,3.5-0.4c1.1,0,2.1,0,2.8,0.1c0.8,0.1,1.4,0.1,1.9,0.2c0.5,0.1,0.9,0.1,1.2,0.1
			c0.3,0,0.6,0.1,0.8,0.1c0.2,0,0.4-0.1,0.4-0.4l0.3-1.8c0.2-0.5,0.1-0.9-0.2-1.1c-0.3-0.2-0.6-0.4-1-0.4c-0.6-0.1-1.3-0.2-2.1-0.3
			c-0.9-0.1-2.1-0.1-3.7-0.1c-3.1,0-5.5,0.6-6.9,1.7c-1.5,1.1-2.4,2.6-2.6,4.3c-0.2,1.4,0,2.5,0.7,3.3c0.7,0.8,2,1.5,3.9,2l5.1,1.5
			c0.5,0.2,1,0.4,1.4,0.7c0.4,0.3,0.6,0.7,0.5,1.2c-0.1,0.7-0.6,1.3-1.3,1.6c-0.8,0.4-2,0.6-3.7,0.6c-2.3,0-4-0.2-5.1-0.5
			c-1.1-0.4-1.8-0.5-2.2-0.5c-0.3,0-0.4,0.1-0.5,0.4l-0.4,1.9c-0.1,0.9,0.2,1.5,1,1.7c0.8,0.2,1.7,0.4,2.9,0.5
			c1.1,0.1,2.5,0.2,4.2,0.2c3.1,0,5.3-0.5,6.9-1.6c1.5-1.1,2.5-2.6,2.8-4.6c0.2-1.4,0-2.5-0.7-3.3c-0.7-0.9-2-1.5-3.7-2l-5.3-1.5
			c-1.4-0.4-2-1-1.9-1.9C367.4,138.6,367.9,138.1,368.7,137.8z M472.6,154.2h3.2c0.3,0,0.4-0.2,0.5-0.5l2.4-15.6
			c0.1-0.4,0.4-0.5,0.7-0.5h5.1c0.4,0,0.6-0.1,0.6-0.4l0.4-2.4c0.1-0.4-0.1-0.5-0.5-0.5h-5.8l0.4-2.4c0.2-1.1,0.5-1.7,1-2
			c0.4-0.3,1.3-0.5,2.8-0.5h3.2c0.2,0,0.3-0.1,0.3-0.3l0.6-2.2c0.1-0.7-0.2-1.2-1-1.3h-3.1c-4.7,0-7.3,2.2-8,6.6l-3.4,21.7
			C472,154,472.2,154.2,472.6,154.2z M560.6,126.6l-2.2,10.8l8.6-10.8H560.6z M346.5,137.8c0.8-0.3,1.9-0.4,3.5-0.4
			c1.1,0,2.1,0,2.8,0.1c0.8,0.1,1.4,0.1,1.9,0.2c0.5,0.1,0.9,0.1,1.2,0.1c0.3,0,0.6,0.1,0.8,0.1c0.2,0,0.4-0.1,0.4-0.4l0.3-1.8
			c0.2-0.5,0.1-0.9-0.2-1.1c-0.3-0.2-0.6-0.4-1-0.4c-0.6-0.1-1.3-0.2-2.1-0.3c-0.9-0.1-2.1-0.1-3.7-0.1c-3.1,0-5.5,0.6-6.9,1.7
			c-1.5,1.1-2.4,2.6-2.6,4.3c-0.2,1.4,0,2.5,0.7,3.3c0.7,0.8,2,1.5,3.9,2l5.1,1.5c0.5,0.2,1,0.4,1.4,0.7c0.4,0.3,0.6,0.7,0.5,1.2
			c-0.1,0.7-0.6,1.3-1.3,1.6c-0.8,0.4-2,0.6-3.7,0.6c-2.3,0-4-0.2-5.1-0.5c-1.1-0.4-1.8-0.5-2.2-0.5c-0.3,0-0.4,0.1-0.5,0.4
			l-0.4,1.9c-0.1,0.9,0.2,1.5,1,1.7c0.8,0.2,1.7,0.4,2.9,0.5c1.1,0.1,2.5,0.2,4.2,0.2c3.1,0,5.3-0.5,6.9-1.6
			c1.5-1.1,2.5-2.6,2.8-4.6c0.2-1.4,0-2.5-0.7-3.3c-0.7-0.9-2-1.5-3.7-2l-5.3-1.5c-1.4-0.4-2-1-1.9-1.9
			C345.3,138.6,345.7,138.1,346.5,137.8z M456.7,154.3c1.9,0,3.6-0.1,4.8-0.2c1.3-0.1,2.5-0.3,3.7-0.5c1-0.2,1.6-0.7,1.8-1.7
			l2.8-17.5c0-0.3-0.1-0.5-0.5-0.5h-3.4c-0.3,0-0.5,0.2-0.5,0.5l-2.4,15.1c-0.1,0.3-0.3,0.5-0.7,0.6c-0.4,0.1-0.9,0.2-1.6,0.2
			c-0.7,0-1.7,0.1-3.1,0.1c-1.8,0-2.9-0.3-3.5-0.8c-0.5-0.5-0.7-1.6-0.4-3.1l1.9-12.2c0-0.3-0.1-0.5-0.4-0.5h-3.5
			c-0.3,0-0.5,0.2-0.5,0.5l-2,12.9c-0.4,2.5,0,4.3,1.2,5.4C451.5,153.8,453.6,154.3,456.7,154.3z M504.1,154.2h3.8
			c0.3,0,0.5-0.2,0.6-0.5l4.3-27.7c0.1-0.4-0.1-0.5-0.4-0.5h-2.2c-1.4,0-2.2,0.8-2.4,2.3l-4,25.9C503.7,154,503.8,154.2,504.1,154.2
			z M516.5,151.4c0.6,0.9,1.6,1.6,2.8,2.1c1.2,0.5,2.8,0.7,4.8,0.7c1.4,0,2.6,0,3.6-0.1c1.1,0,1.9-0.1,2.6-0.2
			c0.5-0.1,0.9-0.2,1.2-0.5c0.3-0.2,0.5-0.6,0.5-1.1l0.2-1.8c0.1-0.3-0.1-0.5-0.4-0.5c-0.1,0-0.5,0-0.9,0c-0.5,0-1,0.1-1.7,0.1
			c-0.6,0.1-1.3,0.1-2,0.1c-0.7,0-1.4,0.1-2,0.1c-1.9,0-3.3-0.2-4.1-0.7c-0.9-0.5-1.3-1.4-1.4-2.8l7.9-1.4c1.2-0.2,2.2-0.5,3.1-0.8
			c0.9-0.3,1.6-0.7,2.2-1.1c0.6-0.5,1.1-1,1.4-1.7c0.3-0.7,0.6-1.5,0.7-2.4c0.1-0.7,0.1-1.4-0.1-2.1c-0.2-0.7-0.5-1.3-1.1-1.9
			c-0.6-0.6-1.5-1-2.6-1.4c-1.1-0.4-2.6-0.5-4.5-0.5c-1.6,0-3,0.2-4.2,0.5c-1.3,0.3-2.4,0.9-3.3,1.6c-1,0.8-1.7,1.8-2.4,3.1
			c-0.6,1.3-1.1,2.9-1.4,4.8c-0.2,1.6-0.3,3.1-0.2,4.3C515.5,149.4,515.9,150.5,516.5,151.4z M520.2,143c0.2-1.1,0.4-1.9,0.6-2.7
			c0.3-0.7,0.6-1.3,1.1-1.8c0.5-0.5,1.1-0.8,1.9-1c0.8-0.2,1.7-0.3,2.9-0.3c1.6,0,2.7,0.2,3.3,0.6c0.6,0.4,0.9,1,0.7,1.8
			c-0.1,0.4-0.1,0.7-0.2,1c-0.1,0.3-0.3,0.5-0.6,0.7c-0.3,0.2-0.7,0.4-1.3,0.6c-0.5,0.2-1.3,0.3-2.1,0.5l-6.4,1.1L520.2,143z
			 M317,148.1c0.1,1.3,0.5,2.4,1.1,3.3c0.6,0.9,1.6,1.6,2.8,2.1c1.2,0.5,2.8,0.7,4.8,0.7c1.4,0,2.6,0,3.6-0.1c1.1,0,1.9-0.1,2.6-0.2
			c0.5-0.1,0.9-0.2,1.2-0.5c0.3-0.2,0.5-0.6,0.5-1.1l0.2-1.8c0.1-0.3-0.1-0.5-0.4-0.5c-0.1,0-0.5,0-0.9,0c-0.5,0-1,0.1-1.6,0.1
			c-0.6,0.1-1.3,0.1-2,0.1c-0.7,0-1.4,0.1-2,0.1c-1.9,0-3.3-0.2-4.1-0.7c-0.9-0.5-1.3-1.4-1.4-2.8l7.9-1.4c1.2-0.2,2.2-0.5,3.1-0.8
			c0.9-0.3,1.6-0.7,2.2-1.1c0.6-0.5,1.1-1,1.4-1.7c0.3-0.7,0.6-1.5,0.7-2.4c0.1-0.7,0.1-1.4-0.1-2.1c-0.2-0.7-0.5-1.3-1.1-1.9
			c-0.6-0.6-1.5-1-2.6-1.4c-1.1-0.4-2.6-0.5-4.4-0.5c-1.6,0-3,0.2-4.2,0.5c-1.3,0.3-2.4,0.9-3.3,1.6c-1,0.8-1.7,1.8-2.4,3.1
			c-0.6,1.3-1.1,2.9-1.4,4.8C317,145.4,316.9,146.8,317,148.1z M321.8,143c0.2-1.1,0.4-1.9,0.6-2.7c0.3-0.7,0.6-1.3,1.1-1.8
			c0.5-0.5,1.1-0.8,1.9-1c0.8-0.2,1.7-0.3,2.9-0.3c1.6,0,2.7,0.2,3.3,0.6c0.6,0.4,0.9,1,0.7,1.8c-0.1,0.4-0.1,0.7-0.3,1
			c-0.1,0.3-0.3,0.5-0.6,0.7c-0.3,0.2-0.7,0.4-1.2,0.6c-0.5,0.2-1.3,0.3-2.1,0.5l-6.4,1.1L321.8,143z M488.4,154.2h3.2
			c0.3,0,0.4-0.2,0.5-0.5l2.4-15.6c0.1-0.4,0.4-0.5,0.7-0.5h5.1c0.4,0,0.6-0.1,0.6-0.4l0.4-2.4c0.1-0.4-0.1-0.5-0.5-0.5h-5.8
			l0.4-2.4c0.2-1.1,0.5-1.7,1-2c0.4-0.3,1.3-0.5,2.8-0.5h3.2c0.2,0,0.3-0.1,0.3-0.3l0.6-2.2c0.1-0.7-0.2-1.2-1-1.3h-3.1
			c-4.7,0-7.3,2.2-8,6.6l-3.4,21.7C487.9,154,488,154.2,488.4,154.2z M537.6,154.2h3.4c0.3,0,0.5-0.2,0.6-0.5l2-13
			c0.2-1,0.5-1.7,1.2-2.1c0.6-0.4,1.4-0.6,2.5-0.6c0.8,0,1.7,0,2.5,0c0.8,0,1.4,0,1.8,0c0.3,0,0.5-0.1,0.5-0.4l0.4-1.9
			c0.1-0.7-0.2-1.2-1-1.3c-0.5-0.1-1-0.1-1.6-0.2c-0.6,0-1.2-0.1-1.8-0.1c-2.6,0-4.6,0.6-6,1.7c-1.5,1.1-2.4,2.9-2.8,5.4l-1.9,12.4
			C537.2,154,537.3,154.2,537.6,154.2z M240.2,138c0.1-0.4,0.2-0.5,0.6-0.5h5.2c0.3,0,0.5-0.2,0.6-0.5l0.4-2.5
			c0-0.3-0.1-0.5-0.4-0.5h-5.7l0.8-5.4c0.1-0.3-0.1-0.5-0.4-0.5h-2.1c-0.6,0-1.1,0.2-1.5,0.5c-0.4,0.4-0.7,0.9-0.7,1.5l-2.7,17.5
			c-0.3,2.3-0.1,3.9,0.9,5c0.9,1.1,2.7,1.6,5.3,1.6h1.7c0.5,0,1,0,1.5-0.1c0.5-0.1,0.8-0.3,1-0.4c0.2-0.2,0.3-0.5,0.4-0.9l0.3-1.9
			c0-0.3-0.1-0.4-0.3-0.4c-0.4,0-0.9,0-1.6,0.1c-0.7,0-1.2,0.1-1.7,0.1c-1.5,0-2.3-0.2-2.6-0.6c-0.3-0.4-0.4-1.2-0.2-2.2L240.2,138z
			 M196.9,153.3c1.4,0.4,3.2,0.6,5.2,0.8c2.1,0.2,4.6,0.3,7.6,0.3c5.6,0,9.8-0.9,12.6-2.6c2.8-1.7,4.5-4.1,5.1-7.3
			c0.4-2.2,0-3.9-1.3-5.3c-1.3-1.4-3.6-2.4-6.8-3.2l-9.7-2.3c-2.6-0.6-3.7-1.6-3.5-3c0.2-1.2,1.1-2.1,2.5-2.5
			c1.4-0.4,3.5-0.7,6.4-0.7c2.1,0,3.8,0,5.2,0.1c1.4,0.1,2.5,0.2,3.4,0.3c0.9,0.1,1.6,0.2,2.2,0.2c0.6,0.1,1,0.1,1.4,0.1
			c0.4,0,0.7-0.2,0.7-0.6l0.5-2.9c0.3-0.8,0.2-1.4-0.3-1.7c-0.5-0.3-1.1-0.6-1.9-0.7c-1-0.2-2.3-0.3-3.9-0.5
			c-1.6-0.1-3.9-0.2-6.9-0.2c-5.7,0-10,0.9-12.7,2.7c-2.7,1.8-4.3,4.1-4.8,6.8c-0.4,2.2,0,3.9,1.3,5.2c1.3,1.3,3.7,2.3,7.2,3.2
			l9.3,2.3c1,0.3,1.9,0.6,2.6,1.1c0.7,0.4,1,1,0.9,1.9c-0.2,1.1-1,2-2.5,2.6c-1.4,0.6-3.7,0.9-6.8,0.9c-4.3,0-7.4-0.3-9.3-0.8
			c-2-0.6-3.3-0.8-4.1-0.8c-0.5,0-0.8,0.2-0.9,0.7l-0.7,3.1C194.8,152,195.4,152.9,196.9,153.3z M254.7,134.4
			c-0.5,0.1-0.8,0.2-1.1,0.4c-0.3,0.2-0.5,0.6-0.5,1.1l-0.2,1.8c-0.1,0.3,0,0.4,0.3,0.4c0.4,0,1.2-0.1,2.3-0.3
			c1.1-0.2,2.8-0.3,5-0.3c1.7,0,2.8,0.2,3.4,0.6c0.6,0.4,0.8,1.1,0.6,2.1c-0.1,0.3-0.1,0.5-0.2,0.6c-0.1,0.1-0.2,0.2-0.5,0.3
			c-0.2,0.1-0.5,0.2-0.8,0.2c-0.3,0.1-0.7,0.2-1.2,0.3c-0.5,0.1-1.1,0.2-1.9,0.3c-0.7,0.1-1.6,0.3-2.7,0.4c-2.3,0.4-4.1,1.1-5.4,1.9
			c-1.3,0.8-2.1,2.1-2.4,3.8c-0.1,0.7-0.1,1.4-0.1,2.1c0.1,0.7,0.4,1.3,0.9,1.9c0.5,0.6,1.4,1,2.5,1.4c1.1,0.4,2.7,0.5,4.6,0.5
			c1.3,0,2.6,0,3.9-0.1c1.3-0.1,2.5-0.2,3.6-0.4c1-0.2,1.6-0.7,1.8-1.7l1.8-10.7c0.4-2.6,0.1-4.5-1.1-5.6c-1.2-1.1-3.3-1.6-6.3-1.6
			c-1.6,0-2.9,0-3.9,0.1C256.2,134.2,255.3,134.3,254.7,134.4z M262.8,150.3c-0.4,0.1-1,0.2-1.9,0.2c-0.9,0.1-1.7,0.1-2.5,0.1
			c-1.5,0-2.7-0.2-3.5-0.5c-0.8-0.3-1.2-1-1-2c0.2-1.2,1-1.9,2.5-2.2l7.4-1.4L262.8,150.3z M196.9,115.3h45.9c3.9,0,6.1-1.6,6.7-4.9
			l0.9-4.9c0.1-0.8-0.2-1.1-1.1-1.1h-30.9l36.4-29.2c1-0.7,1.6-1.4,1.7-2.2l1.6-8.8c0.1-0.8-0.2-1.1-1.1-1.1H211
			c-3.9,0-6.1,1.6-6.7,4.9l-0.9,4.9c-0.2,0.8,0.2,1.1,1.1,1.1h31.4l-37.5,30.3c-0.5,0.1-0.8,0.5-0.9,1l-1.6,8.8
			C195.7,114.9,196,115.3,196.9,115.3z M443.9,133.2c1.1-7.4-2.7-11.1-11.3-11.1c-1.8,0-3.6,0.2-5.2,0.5c-1.7,0.3-3.1,0.7-4.2,1
			c-0.8-0.5-1.9-0.8-3.3-1.1c-1.3-0.3-2.8-0.4-4.4-0.4c-2.3,0-4.3,0.1-6.2,0.3c-1.9,0.2-3.7,0.5-5.4,0.9c-1.7,0.3-2.6,1.3-2.8,2.7
			l-7.1,39.4H194.1l-2.2,8.6h207l0.1-0.5c0.2-0.1,0.4-0.3,0.4-0.6l0.8-4.2l0.6-3.3l6.5-35.6c0.1-0.7,0.5-1,1-1
			c1.1-0.4,2.6-0.5,4.7-0.5c2.6,0,4.3,0.4,4.9,1.2c0.6,0.8,0.8,2.2,0.5,4.1l-7.3,39.4c-0.1,0.5,0.1,0.7,0.6,0.7h5.5
			c0.6,0,0.9-0.2,0.9-0.7l7.9-43.2c0.1-0.6,0.4-0.9,0.9-1c1.4-0.4,3.1-0.5,4.9-0.5c2.2,0,3.6,0.4,4.4,1.3c0.7,0.9,0.9,2.4,0.6,4.7
			l-5.5,39.8h153.1l2.2-8.6H439.6L443.9,133.2z M586.8,134.6c-0.3-0.2-0.6-0.4-1-0.4c-0.6-0.1-1.3-0.2-2.1-0.3
			c-0.9-0.1-2.1-0.1-3.7-0.1c-3.1,0-5.5,0.6-6.9,1.7c-1.5,1.1-2.4,2.6-2.6,4.3c-0.2,1.4,0,2.5,0.7,3.3c0.7,0.8,2,1.5,3.9,2l5.1,1.5
			c0.5,0.2,1,0.4,1.4,0.7c0.4,0.3,0.6,0.7,0.5,1.2c-0.1,0.7-0.6,1.3-1.3,1.6c-0.8,0.4-2,0.6-3.7,0.6c-2.3,0-4-0.2-5.1-0.5
			c-1.1-0.4-1.8-0.5-2.2-0.5c-0.3,0-0.4,0.1-0.5,0.4l-0.4,1.9c-0.1,0.9,0.2,1.5,1,1.7c0.8,0.2,1.7,0.4,2.9,0.5
			c1.1,0.1,2.5,0.2,4.2,0.2c3.1,0,5.3-0.5,6.9-1.6c1.5-1.1,2.5-2.6,2.8-4.6c0.2-1.4,0-2.5-0.7-3.3c-0.7-0.9-2-1.5-3.7-2l-5.3-1.5
			c-1.4-0.4-2-1-1.9-1.9c0.1-0.8,0.6-1.3,1.3-1.6c0.8-0.3,1.9-0.4,3.5-0.4c1.1,0,2.1,0,2.8,0.1c0.8,0.1,1.4,0.1,1.9,0.2
			c0.5,0.1,0.9,0.1,1.2,0.1c0.3,0,0.6,0.1,0.8,0.1c0.2,0,0.4-0.1,0.4-0.4l0.3-1.8C587.1,135.2,587,134.8,586.8,134.6z M276.4,134.6
			c-1.3,0-2,0.6-2.2,1.9l-2.7,17.3c0,0.3,0.1,0.4,0.4,0.4h3.4c0.3,0,0.5-0.1,0.5-0.4l2.9-18.7c0-0.3-0.1-0.4-0.4-0.4H276.4z
			 M311.7,125.4c-1.4,0-2.2,0.8-2.4,2.3l-4,25.9c-0.1,0.4,0.1,0.5,0.4,0.5h3.8c0.3,0,0.5-0.2,0.6-0.5l4.3-27.7
			c0.1-0.4-0.1-0.5-0.4-0.5H311.7z M280.1,128.3c0.3-1.7-0.4-2.6-2.1-2.6c-1.7,0-2.7,0.9-3,2.6c-0.3,1.7,0.5,2.5,2.2,2.5
			C278.9,130.9,279.9,130,280.1,128.3z M296,153.9c-0.1,0.3,0.1,0.5,0.4,0.5h3.5c0.3,0,0.5-0.2,0.6-0.5l2.1-12.9
			c0.4-2.5,0-4.3-1.2-5.4c-1.2-1.1-3.3-1.6-6.4-1.6c-1.9,0-3.5,0.1-4.8,0.2c-1.3,0.1-2.5,0.3-3.7,0.5c-1,0.2-1.6,0.7-1.8,1.7
			l-2.8,17.5c-0.1,0.3,0.1,0.5,0.5,0.5h3.4c0.3,0,0.5-0.2,0.5-0.5l2.4-15.1c0.1-0.3,0.3-0.5,0.7-0.6c0.4-0.1,0.9-0.2,1.6-0.2
			c0.7,0,1.8-0.1,3.1-0.1c1.8,0,3,0.3,3.5,0.8c0.5,0.5,0.7,1.6,0.4,3.1L296,153.9z M338.5,114c0.1,0.5,0.4,0.9,0.7,1.3
			c0.3,0.3,0.8,0.5,1.5,0.5h13c1.1,0,2-0.5,2.7-1.4l30.2-48.6c0.3-0.4,0.6-0.8,0.6-1c0.1-0.2,0.1-0.4,0.2-0.6
			c0.1-0.8-0.3-1.1-1.3-1.1h-8.5c-1.4,0-2.4,0.2-3,0.6c-0.6,0.4-1.1,1-1.5,1.9L350,105h-0.2l-8.6-39.6c-0.3-1.6-1.7-2.4-4.2-2.4
			h-9.1c-1,0-1.6,0.4-1.7,1.1c-0.1,0.5-0.1,1,0.1,1.6L338.5,114z M265.8,114.1c2.4,0.6,5.2,1,8.6,1.3c3.4,0.3,7.5,0.5,12.5,0.5
			c9.1,0,16-1.4,20.6-4.2c4.6-2.8,7.4-6.8,8.3-11.9c0.7-3.5-0.1-6.4-2.2-8.6c-2.1-2.2-5.8-3.9-11.2-5.2l-15.8-3.8
			c-4.2-0.9-6.1-2.5-5.7-4.8c0.4-2,1.7-3.4,4-4.1c2.3-0.7,5.8-1.1,10.5-1.1c3.4,0,6.3,0.1,8.5,0.2c2.2,0.2,4.1,0.3,5.5,0.5
			c1.5,0.2,2.6,0.3,3.6,0.4c0.9,0.1,1.7,0.2,2.2,0.2c0.7,0,1.1-0.3,1.2-0.9l0.9-4.7c0.5-1.3,0.3-2.2-0.4-2.8
			c-0.8-0.6-1.8-0.9-3.1-1.1c-1.7-0.3-3.8-0.6-6.4-0.8c-2.6-0.2-6.3-0.3-11.2-0.3c-9.4,0-16.3,1.5-20.8,4.4
			c-4.5,2.9-7.1,6.6-7.9,11.1c-0.7,3.5,0,6.3,2.1,8.4c2,2.1,6,3.8,11.8,5.2l15.3,3.8c1.6,0.5,3,1.1,4.2,1.7c1.2,0.7,1.7,1.7,1.4,3.1
			c-0.3,1.8-1.7,3.2-4,4.3c-2.4,1-6,1.5-11.1,1.5c-6.9,0-12-0.5-15.3-1.4c-3.2-0.9-5.5-1.4-6.7-1.4c-0.8,0-1.3,0.4-1.4,1.1l-1.1,5
			C262.4,112.1,263.4,113.5,265.8,114.1z"/>
	</g>
</g>
<g id="Logo_shape">
	<g>
		<path class="st0" d="M139,35.3l-7.6,6.6v82.4c0,0,0.5,11.8-6.2,19.3c-27.3,30.6-39.4,40.2-39.4,40.2s-4.5,3.8-8.6,3.8
			c-0.1,0-0.2,0-0.3,0c-0.1,0-0.2,0-0.3,0c-4.1,0-8.6-3.8-8.6-3.8s-12.1-9.6-39.4-40.2c-6.7-7.5-6.2-19.3-6.2-19.3V42.4l-8.2-7.1
			c0,0-3.9,93.4,2.1,108.4c6.8,16.8,60.5,58.4,60.5,58.4s53.1-41.6,59.9-58.4C142.9,128.7,139,35.3,139,35.3z M73.1,178.2
			c0,0,1.8,1.3,3.6,1.3c0.1,0,0.1,0,0.2,0c0.1,0,0.1,0,0.2,0c1.8,0,3.6-1.3,3.6-1.3s38.8-37.8,40.9-42.5c2.3-5,2.1-11.4,2.1-11.4V34
			L76.9,80.4L30.1,34v90.3c0,0-0.2,6.4,2.1,11.4C34.3,140.4,73.1,178.2,73.1,178.2z M80.7,113l16.5,15.7h3.2c0,0,1.9-1.8,1.9-3.7
			c0-1.9-1.9-3.8-1.9-3.8l-15.8-16.3c0,0-3.8-4.9-3.8-10.6c0-5.7,4.4-11.4,4.4-11.4l30.4-30.1v52.7L101,91.7c0,0-2.9-2-5.2,0.1
			c-2.1,2-0.5,5.5-0.5,5.5l17.1,16.9c0,0,3.2,5,3.2,9.7c0,5.6-3.2,11-3.2,11l-27.2,27c0,0-0.3-1.1-1.3-2.2c-1.2-1.3-3.1-2.2-3.1-2.2
			V113z M58.1,91.8c-2.3-2.2-5.2-0.1-5.2-0.1l-14.6,13.8V52.8l30.4,30.1c0,0,4.4,5.7,4.4,11.4c0,5.6-3.8,10.6-3.8,10.6l-15.8,16.3
			c0,0-1.9,1.9-1.9,3.8c0,1.9,1.9,3.7,1.9,3.7h3.2L73.1,113v44.5c0,0-1.9,0.8-3.1,2.2c-1,1.1-1.3,2.2-1.3,2.2l-27.2-27
			c0,0-3.2-5.4-3.2-11c0-4.7,3.2-9.7,3.2-9.7l17.1-16.9C58.6,97.3,60.2,93.8,58.1,91.8z"/>
	</g>
</g>
</svg>
