<svg width="16" height="16" viewBox="0 0 16 16" fill="none" xmlns="http://www.w3.org/2000/svg">
<path d="M6.02668 14.36C6.66668 14.5533 7.31334 14.6667 8.00001 14.6667C9.76812 14.6667 11.4638 13.9643 12.7141 12.714C13.9643 11.4638 14.6667 9.76811 14.6667 8C14.6667 7.12452 14.4942 6.25761 14.1592 5.44878C13.8242 4.63994 13.3331 3.90501 12.7141 3.28595C12.095 2.6669 11.3601 2.17583 10.5512 1.8408C9.7424 1.50577 8.87549 1.33333 8.00001 1.33333C7.12453 1.33333 6.25762 1.50577 5.44879 1.8408C4.63995 2.17583 3.90502 2.6669 3.28596 3.28595C2.03572 4.5362 1.33334 6.23189 1.33334 8C1.33334 10.8333 3.11334 13.2667 5.62668 14.2267C5.56668 13.7067 5.50668 12.8467 5.62668 12.2533L6.39334 8.96C6.39334 8.96 6.20001 8.57333 6.20001 7.96C6.20001 7.04 6.77334 6.35333 7.42668 6.35333C8.00001 6.35333 8.26668 6.77333 8.26668 7.31333C8.26668 7.88667 7.88668 8.70667 7.69334 9.49333C7.58001 10.1467 8.04001 10.72 8.70668 10.72C9.89334 10.72 10.8133 9.45333 10.8133 7.66667C10.8133 6.06667 9.66668 4.97333 8.02001 4.97333C6.14001 4.97333 5.03334 6.37333 5.03334 7.84667C5.03334 8.42 5.22001 9 5.52668 9.38C5.58668 9.42 5.58668 9.47333 5.56668 9.57333L5.37334 10.3C5.37334 10.4133 5.30001 10.4533 5.18668 10.3733C4.33334 10 3.84001 8.78667 3.84001 7.80667C3.84001 5.7 5.33334 3.78667 8.21334 3.78667C10.5067 3.78667 12.2933 5.43333 12.2933 7.62C12.2933 9.91333 10.8733 11.7533 8.84001 11.7533C8.19334 11.7533 7.56001 11.4067 7.33334 11L6.88668 12.58C6.73334 13.1533 6.31334 13.92 6.02668 14.38V14.36Z" fill="white"/>
</svg>
