<svg width="68" height="31" viewBox="0 0 68 31" fill="none" xmlns="http://www.w3.org/2000/svg">
<path d="M2 13.4932C0.89543 13.4932 0 14.3886 0 15.4932C0 16.5977 0.89543 17.4932 2 17.4932V13.4932ZM67.4142 16.9074C68.1953 16.1263 68.1953 14.86 67.4142 14.079L54.6863 1.35103C53.9052 0.56998 52.6389 0.56998 51.8579 1.35103C51.0768 2.13208 51.0768 3.39841 51.8579 4.17946L63.1716 15.4932L51.8579 26.8069C51.0768 27.5879 51.0768 28.8543 51.8579 29.6353C52.6389 30.4163 53.9052 30.4163 54.6863 29.6353L67.4142 16.9074ZM2 17.4932H66V13.4932H2V17.4932Z" fill="#CFCFCF"/>
</svg>
